Ten years after the 'Phantom Menace' threatened the planet Naboo, Padmé Amidala is now a Senator representing her homeworld. A faction of political separatists, led by Count Dooku, attempts to assassinate her. There are not enough Jedi to defend the Republic against the threat, so Chancellor Palpatine enlists the aid of Jango Fett, who promises that his army of clones will handle the situation. Meanwhile, Obi-Wan Kenobi continues to train the young Jedi Anakin Skywalker, who fears that the Jedi code will forbid his growing romance with Amidala.

* * * MediaInspector for Mac - Version 2.0.1, build 900
* * * ©2012 by Diego Massanti
* * * MediaInfo Lib by Jerome Martinez
* * * Raw File Report for (2002) Star.Wars.Episode.2.Attack.of.the.Clones1080p BluRay Hardcoded subs-PT [TUGA].mkv

General
Complete name : /Volumes/My Book/Cinema/Boxset/Star Wars Boxset /Star Wars Episode II - Attack Of The Clones/(2002) Star.Wars.Episode.2.Attack.of.the.Clones1080p BluRay Hardcoded subs-PT [TUGA].mkv
Format : Matroska
File size : 8.51 GiB
Duration : 2h 22mn
Overall bit rate : 8 552 Kbps
Encoded date : UTC 2013-06-16 11:22:15
Writing library : WonderShare Matroska Muxer

Video
ID : 1
Format : AVC
Format/Info : Advanced Video Codec
Format profile : Baseline@L5.0
Format settings, CABAC : No
Format settings, ReFrames : 1 frame
Codec ID : V_MPEG4/ISO/AVC
Duration : 2h 22mn
Bit rate : 8 222 Kbps
Width : 1 920 pixels
Height : 1 080 pixels
Display aspect ratio : 16:9
Frame rate : 23.976 fps
Original frame rate : 23.000 fps
Color space : YUV
Chroma subsampling : 4:2:0
Bit depth : 8 bits
Scan type : Progressive
Bits/(Pixel*Frame) : 0.165
Stream size : 8.18 GiB (96%)

Audio
ID : 2
Format : AC-3
Format/Info : Audio Coding 3
Mode extension : CM (complete main)
Codec ID : A_AC3
Duration : 2h 22mn
Bit rate mode : Constant
Bit rate : 160 Kbps
Channel(s) : 2 channels
Channel positions : Front: L R
Sampling rate : 44.1 KHz
Bit depth : 16 bits
Compression mode : Lossy
Delay relative to video : 4ms
Stream size : 163 MiB (2%)